<svg width="200" height="273" viewBox="0 0 200 273" fill="none" xmlns="http://www.w3.org/2000/svg">
<path fill-rule="evenodd" clip-rule="evenodd" d="M103.6 59.6H38.85C17.2623 68.4711 4.31235 81.7711 0 99.5V232.5C0 243.082 4.09311 253.231 11.3789 260.714C18.6647 268.196 28.5463 272.4 38.85 272.4H103.6C113.904 272.4 123.785 268.196 131.071 260.714C138.357 253.231 142.45 243.082 142.45 232.5V99.5C138.138 81.7711 125.188 68.4711 103.6 59.6ZM12.95 232.5V101.269C16.3688 89.2989 25.4985 79.9224 41.427 72.9H101.01C116.938 79.9224 126.068 89.2989 129.487 101.269V232.5C129.487 239.555 126.758 246.321 121.901 251.309C117.044 256.297 110.456 259.1 103.587 259.1H38.8371C31.9679 259.1 25.3802 256.297 20.523 251.309C15.6658 246.321 12.95 239.555 12.95 232.5Z" fill="#643A99"/>
<path fill-rule="evenodd" clip-rule="evenodd" d="M32.375 159.35C32.375 173.459 37.8325 186.991 47.5469 196.968C57.2612 206.945 70.4368 212.55 84.175 212.55C97.9132 212.55 111.089 206.945 120.803 196.968C130.518 186.991 135.975 173.459 135.975 159.35C135.975 145.24 130.518 131.709 120.803 121.732C111.089 111.755 97.9132 106.15 84.175 106.15C70.4368 106.15 57.2612 111.755 47.5469 121.732C37.8325 131.709 32.375 145.24 32.375 159.35ZM123.025 159.35C123.025 164.59 122.02 169.778 120.068 174.619C118.115 179.46 115.254 183.858 111.646 187.564C108.039 191.269 103.756 194.208 99.0423 196.213C94.3288 198.218 89.2769 199.25 84.175 199.25C79.0731 199.25 74.0212 198.218 69.3077 196.213C64.5942 194.208 60.3115 191.269 56.7039 187.564C53.0963 183.858 50.2347 179.46 48.2823 174.619C46.3299 169.778 45.325 164.59 45.325 159.35C45.325 148.768 49.4181 138.619 56.7039 131.136C63.9897 123.654 73.8713 119.45 84.175 119.45C94.4787 119.45 104.36 123.654 111.646 131.136C118.932 138.619 123.025 148.768 123.025 159.35Z" fill="#643A99"/>
<circle cx="67.2251" cy="160.5" r="5.5" fill="#643A99"/>
<circle cx="89.2251" cy="145.5" r="5.5" fill="#643A99"/>
<path d="M107.725 151C119.225 179.5 84.2251 191.5 72.2251 180.5" stroke="#643A99" stroke-width="6"/>
<path d="M119.548 40.4495C120.26 41.5214 121.264 42.3268 122.414 42.7464L129.164 45.1413C131.198 45.8799 132.984 47.2591 134.297 49.1041C135.045 50.1576 135.625 51.3398 136.007 52.6076L138.235 60.0495C138.632 61.2965 139.376 62.3775 140.364 63.1417C141.353 63.9059 142.535 64.3152 143.747 64.3125C144.962 64.318 146.147 63.9077 147.136 63.1396C148.129 62.3433 148.88 61.2408 149.293 59.976L151.49 52.6199C152.024 50.8865 152.919 49.3124 154.106 48.0139C155.285 46.7247 156.725 45.7545 158.31 45.1811L165.184 42.7494C166.032 42.42 166.799 41.8815 167.424 41.1759C168.05 40.4703 168.516 39.6168 168.789 38.682C169.061 37.7473 169.13 36.7568 168.993 35.7878C168.855 34.8188 168.513 33.8977 167.994 33.0964C167.244 31.9569 166.177 31.1106 164.951 30.6832L158.184 28.2975C156.592 27.7237 155.146 26.7532 153.959 25.4634C152.773 24.1736 151.879 22.6 151.349 20.8679L149.116 13.3954C148.717 12.1588 147.974 11.0884 146.99 10.3329C145.998 9.58611 144.821 9.1861 143.615 9.1861C142.409 9.1861 141.232 9.58611 140.24 10.3329C139.229 11.1073 138.47 12.2121 138.074 13.4873L135.83 21.0088C135.3 22.6905 134.428 24.2199 133.278 25.4826C132.129 26.7454 130.732 27.7087 129.193 28.3006L122.33 30.7199C121.473 31.0494 120.698 31.5922 120.067 32.305C119.437 33.0179 118.968 33.8812 118.697 34.8262C118.427 35.7713 118.363 36.772 118.51 37.7487C118.657 38.7255 119.012 39.6513 119.546 40.4526M143.77 58.1875H143.736C143.697 58.1878 143.659 58.1754 143.626 58.1519C143.594 58.1285 143.568 58.095 143.553 58.0558L141.354 50.7089L141.351 50.6936C140.769 48.764 139.887 46.9575 138.744 45.3526L138.738 45.3434C136.746 42.546 134.037 40.454 130.953 39.3317L130.931 39.3256L124.2 36.9399C124.16 36.9215 124.126 36.891 124.101 36.8518C124.077 36.8127 124.063 36.7667 124.063 36.7194C124.063 36.6748 124.075 36.6312 124.097 36.5934C124.119 36.5557 124.15 36.5251 124.186 36.505L130.993 34.1009L131.063 34.0734C133.403 33.1741 135.526 31.71 137.273 29.7907C139.021 27.8713 140.346 25.5465 141.151 22.9902L141.165 22.9443L143.41 15.4381C143.421 15.4054 143.438 15.3778 143.46 15.3554C143.507 15.3258 143.561 15.3102 143.615 15.3102C143.669 15.3102 143.723 15.3258 143.77 15.3554C143.785 15.3697 143.796 15.388 143.803 15.4105L146.003 22.7605L146.014 22.7973C146.82 25.4354 148.18 27.8323 149.987 29.7969C151.793 31.7615 153.996 33.2395 156.42 34.1132L163.215 36.5111L163.238 36.5173C163.304 36.5416 163.363 36.5863 163.407 36.6459C163.428 36.6821 163.439 36.7246 163.438 36.7678C163.437 36.811 163.424 36.8528 163.401 36.8878L163.398 36.8939C163.375 36.9238 163.348 36.9488 163.317 36.9674L156.572 39.3562L156.538 39.3684C154.118 40.2428 151.92 41.7228 150.12 43.6896C148.324 45.6558 146.967 48.0461 146.155 50.6752L146.149 50.7028L143.983 57.9548C143.951 58.0365 143.903 58.1096 143.843 58.1691L143.77 58.1875ZM182.149 60.7631C182.473 61.8109 183.016 62.7625 183.736 63.5427C184.455 64.3229 185.331 64.9104 186.295 65.2588L190.949 66.9126C191.93 67.244 192.79 67.9047 193.405 68.8C194.021 69.6954 194.361 70.7797 194.376 71.8979C194.392 73.0162 194.082 74.1112 193.492 75.0265C192.902 75.9418 192.061 76.6306 191.09 76.9943L186.385 78.6664C185.42 79.0114 184.543 79.5989 183.825 80.3814C183.108 81.1679 182.566 82.1235 182.242 83.1744L180.729 88.2276C180.39 89.2988 179.751 90.2268 178.901 90.8797C178.085 91.5176 177.109 91.8652 176.105 91.875C175.092 91.8792 174.104 91.5392 173.277 90.9024C172.45 90.2656 171.826 89.3637 171.493 88.3225L169.951 83.1898C169.637 82.135 169.098 81.1759 168.379 80.3906C167.656 79.6063 166.776 79.0142 165.808 78.6603L161.159 77.0219C160.174 76.656 159.32 75.959 158.721 75.0313C158.281 74.3604 157.99 73.5871 157.873 72.7726C157.755 71.9581 157.813 71.125 158.043 70.3393C158.272 69.5537 158.667 68.8371 159.195 68.2465C159.724 67.6559 160.371 67.2076 161.086 66.9371L165.814 65.2588C166.76 64.8958 167.617 64.3011 168.319 63.5206C169.02 62.74 169.548 61.7946 169.861 60.7569L171.366 55.7038C171.605 54.9132 172.012 54.195 172.553 53.6073C173.094 53.0195 173.755 52.5787 174.482 52.3205C175.208 52.0623 175.981 51.9939 176.736 52.121C177.492 52.248 178.209 52.5668 178.83 53.0517C179.66 53.6856 180.284 54.5891 180.613 55.6303L182.149 60.7631ZM184.52 71.0714C182.729 70.4236 181.101 69.3313 179.764 67.8809C178.427 66.4305 177.418 64.6616 176.817 62.7139L176.808 62.6863L176.001 59.9913L175.199 62.6863C174.609 64.6157 173.624 66.3736 172.319 67.8283L172.305 67.8436C171.009 69.2792 169.427 70.372 167.682 71.0378L167.62 71.0592L165.074 71.9626L167.569 72.8416L167.597 72.8538C169.386 73.5061 171.012 74.5994 172.35 76.0511L172.356 76.0572C173.706 77.5272 174.713 79.3188 175.301 81.2941L175.303 81.3063L176.097 83.9401L176.901 81.2512L176.909 81.2267C177.508 79.2862 178.509 77.5216 179.834 76.0694C181.181 74.5966 182.828 73.4916 184.641 72.8446L187.077 71.9779L184.52 71.0714Z" fill="#8556C2"/>
</svg>
